<svg xmlns="http://www.w3.org/2000/svg" viewBox="0 0 1000 1000" width="100%" height="100%">
  <rect x="0" y="0" width="1000" height="1000" fill="#FFD700" />

  <g fill="#000000" transform="translate(500, 500)">
    <circle cx="0" cy="0" r="80" />

    <path d="M -40 -69.28 L -250 -433 A 500 500 0 0 1 250 -433 L 40 -69.28 A 80 80 0 0 0 -40 -69.28 Z" />
             
    <path d="M -40 -69.28 L -250 -433 A 500 500 0 0 1 250 -433 L 40 -69.28 A 80 80 0 0 0 -40 -69.28 Z" 
          transform="rotate(120)" />
          
    <path d="M -40 -69.28 L -250 -433 A 500 500 0 0 1 250 -433 L 40 -69.28 A 80 80 0 0 0 -40 -69.28 Z" 
          transform="rotate(240)" />
  </g>
</svg>
