<svg width="100" height="100" viewBox="0 0 100 100" xmlns="http://www.w3.org/2000/svg">
  <rect x="0" y="0" width="100" height="100" fill="#1a1a1a" />
  
  <path d="M 15 45 C 15 10, 85 10, 85 45 C 85 60, 75 65, 70 65 L 65 90 L 35 90 L 30 65 C 25 65, 15 60, 15 45 Z" fill="#f2f2f2" />
  
  <circle cx="33" cy="45" r="11" fill="#1a1a1a" />
  <circle cx="67" cy="45" r="11" fill="#1a1a1a" />
  
  <polygon points="50,55 43,68 57,68" fill="#1a1a1a" />
  
  <line x1="38" y1="80" x2="62" y2="80" stroke="#1a1a1a" stroke-width="2" />
  
  <line x1="42" y1="75" x2="42" y2="85" stroke="#1a1a1a" stroke-width="2" />
  <line x1="46" y1="75" x2="46" y2="85" stroke="#1a1a1a" stroke-width="2" />
  <line x1="50" y1="75" x2="50" y2="85" stroke="#1a1a1a" stroke-width="2" />
  <line x1="54" y1="75" x2="54" y2="85" stroke="#1a1a1a" stroke-width="2" />
  <line x1="58" y1="75" x2="58" y2="85" stroke="#1a1a1a" stroke-width="2" />
</svg>
