<svg width="100" height="100" viewBox="0 0 100 100" xmlns="http://www.w3.org/2000/svg">
  <rect x="0" y="0" width="100" height="100" fill="#FFD700" />
  
  <rect x="0" y="30" width="15" height="5" fill="black" />
  
  <rect x="15" y="25" width="30" height="15" fill="black" />
  <rect x="20" y="40" width="20" height="5" fill="black" />
  <rect x="25" y="45" width="10" height="5" fill="black" />
  
  <rect x="45" y="30" width="10" height="5" fill="black" />
  
  <rect x="55" y="25" width="30" height="15" fill="black" />
  <rect x="60" y="40" width="20" height="5" fill="black" />
  <rect x="65" y="45" width="10" height="5" fill="black" />
  
  <rect x="85" y="30" width="15" height="5" fill="black" />

  <rect x="20" y="25" width="5" height="5" fill="white" />
  <rect x="25" y="30" width="5" height="5" fill="white" />
  <rect x="60" y="25" width="5" height="5" fill="white" />
  <rect x="65" y="30" width="5" height="5" fill="white" />

  <rect x="40" y="70" width="20" height="5" fill="black" />
  <rect x="35" y="65" width="5" height="5" fill="black" />
</svg>
